HIERARCHY
ROOT Elbow
{
	OFFSET	0.00	0.00	0.00
	CHANNELS 6 Xposition Yposition Zposition Zrotation Xrotation Yrotation
	JOINT L_Wrist
	{
		OFFSET	 0.208349	 0.000000	 0.000000
		CHANNELS 3 Zrotation Xrotation Yrotation
		JOINT L_index_Proximal
		{
			OFFSET	 0.093499	 0.010637	-0.002084
			CHANNELS 3 Zrotation Xrotation Yrotation
			JOINT L_index_b
			{
				OFFSET	 0.033152	 0.000000	 0.000000
				CHANNELS 3 Zrotation Xrotation Yrotation
				JOINT L_index_c
				{
					OFFSET	 0.018651	 0.000000	 0.000000
					CHANNELS 3 Zrotation Xrotation Yrotation
					End Site
					{
						OFFSET	 0.018651	 0.000000	 0.000000
					}
				}
			}
		}
		JOINT L_middle_Proximal
		{
			OFFSET	 0.090632	-0.006115	-0.003750
			CHANNELS 3 Zrotation Xrotation Yrotation
			JOINT L_middle_b
			{
				OFFSET	 0.037194	 0.000000	 0.000000
				CHANNELS 3 Zrotation Xrotation Yrotation
				JOINT L_middle_c
				{
					OFFSET	 0.021943	 0.000000	 0.000000
					CHANNELS 3 Zrotation Xrotation Yrotation
					End Site
					{
						OFFSET	 0.021943	 0.000000	 0.000000
					}
				}
			}
		}
		JOINT L_pinky_Proximal
		{
			OFFSET	 0.074015	-0.035449	-0.000417
			CHANNELS 3 Zrotation Xrotation Yrotation
			JOINT L_pinky_b
			{
				OFFSET	 0.027285	 0.000000	 0.000000
				CHANNELS 3 Zrotation Xrotation Yrotation
				JOINT L_pinky_c
				{
					OFFSET	 0.015093	 0.000000	 0.000000
					CHANNELS 3 Zrotation Xrotation Yrotation
					End Site
					{
						OFFSET	 0.015093	 0.000000	 0.000000
					}
				}
			}
		}
		JOINT L_ring_Proximal
		{
			OFFSET	 0.082801	-0.021859	-0.003750
			CHANNELS 3 Zrotation Xrotation Yrotation
			JOINT L_ring_b
			{
				OFFSET	 0.034478	 0.000000	 0.000000
				CHANNELS 3 Zrotation Xrotation Yrotation
				JOINT L_ring_c
				{
					OFFSET	 0.021377	 0.000000	 0.000000
					CHANNELS 3 Zrotation Xrotation Yrotation
					End Site
					{
						OFFSET	 0.021377	 0.000000	 0.000000
					}
				}
			}
		}
		JOINT L_thumb_Proximal
		{
			OFFSET	 0.030306	 0.018528	 0.004584
			CHANNELS 3 Zrotation Xrotation Yrotation
			JOINT L_thumb_a
			{
				OFFSET	 0.038520	 0.000000	 0.000000
				CHANNELS 3 Zrotation Xrotation Yrotation
				JOINT L_thumb_b
				{
					OFFSET	 0.026310	 0.000000	 0.000000
					CHANNELS 3 Zrotation Xrotation Yrotation
					End Site
					{
						OFFSET	 0.026310	 0.000000	 0.000000
					}
				}
			}
		}
	}
}
MOTION
Frames:    8
Frame Time: 0.01666667
-0.289901	-0.644862	 0.716713	 57.624260	 11.900520	-170.231400	 26.546940	 2.065577	 11.802870	 6.969087	-4.173135	-50.911430	 0.761611	-0.229145	-33.488690	-0.824089	 0.121191	-16.733300	-14.281380	-4.135203	-77.990300	-0.066787	 0.052168	-75.997890	-2.193359	 0.755150	-37.992230	-35.309370	-14.052160	-66.291040	-2.209303	 1.627223	-72.742710	 0.309162	-0.131447	-46.066710	-22.669500	-7.830757	-77.923450	-0.106497	 0.088116	-79.209210	 0.038970	-0.014311	-40.334010	 71.007710	 46.078130	-53.205920	 4.962783	-0.096942	-2.236639	 2.316047	-0.299761	-14.747410
-0.290049	-0.645046	 0.716836	 57.539640	 11.637570	-170.253500	 26.516700	 2.061823	 11.781080	 6.987461	-4.180959	-50.879650	 0.616985	-0.187815	-33.859200	-0.760456	 0.113480	-16.977160	-14.255340	-4.164206	-77.932540	-0.121922	 0.095397	-76.081950	-2.214198	 0.763456	-38.044540	-35.310390	-14.039660	-66.403040	-2.255486	 1.664499	-72.849950	 0.273677	-0.116433	-46.094750	-22.672030	-7.827633	-77.935460	-0.177166	 0.146907	-79.335930	-0.030505	 0.011193	-40.314030	 70.951190	 46.246460	-52.913420	 4.950265	-0.092712	-2.144566	 2.360264	-0.306256	-14.784270
-0.289818	-0.644936	 0.716969	 57.470740	 11.423060	-170.268400	 26.436000	 2.045309	 11.685310	 6.995720	-4.187256	-50.899090	 0.533518	-0.164393	-34.247410	-0.652312	 0.098559	-17.180900	-14.246280	-4.179504	-77.843190	-0.107334	 0.083969	-76.071780	-2.193043	 0.756442	-38.057860	-35.359440	-13.993920	-66.499900	-2.270011	 1.676399	-72.888570	 0.273480	-0.116296	-46.076350	-22.703670	-7.800126	-77.900790	-0.184184	 0.152890	-79.390440	-0.063679	 0.023374	-40.305500	 70.856060	 46.432310	-52.619040	 4.957382	-0.090834	-2.098191	 2.412238	-0.313213	-14.794130
-0.289653	-0.644849	 0.717002	 57.438630	 11.390120	-170.266600	 26.376530	 2.037735	 11.641380	 6.974485	-4.179102	-50.946440	 0.528008	-0.163949	-34.497880	-0.671854	 0.102398	-17.331820	-14.248510	-4.179535	-77.815350	-0.101778	 0.079639	-76.084880	-2.208080	 0.761507	-38.051790	-35.370990	-13.985060	-66.504850	-2.255821	 1.666293	-72.900540	 0.289666	-0.123294	-46.112910	-22.729210	-7.776510	-77.896390	-0.188281	 0.156359	-79.416920	-0.078651	 0.028872	-40.314090	 70.852990	 46.480630	-52.520860	 4.966423	-0.091667	-2.113736	 2.454392	-0.319846	-14.846850
-0.289370	-0.644940	 0.717049	 57.366580	 11.313120	-170.236400	 26.277430	 2.025789	 11.572120	 6.939477	-4.165368	-51.021200	 0.492409	-0.154128	-34.761310	-0.649521	 0.099909	-17.489500	-14.263830	-4.168677	-77.769510	-0.125359	 0.098165	-76.125000	-2.250860	 0.776438	-38.059840	-35.374060	-13.987410	-66.461770	-2.244795	 1.659415	-72.942760	 0.281633	-0.119911	-46.125690	-22.760930	-7.747363	-77.888400	-0.202831	 0.168602	-79.470470	-0.102137	 0.037503	-40.322940	 70.841050	 46.546920	-52.393180	 4.959636	-0.092377	-2.132694	 2.479344	-0.324440	-14.907660
-0.289099	-0.645065	 0.717219	 57.307210	 11.234160	-170.224400	 26.197110	 2.017631	 11.524860	 6.922204	-4.157312	-51.044400	 0.475511	-0.149508	-34.908670	-0.615709	 0.095356	-17.608510	-14.272320	-4.163085	-77.737710	-0.135790	 0.106419	-76.170430	-2.275942	 0.785472	-38.076930	-35.383030	-13.975500	-66.514560	-2.239526	 1.656446	-72.973240	 0.310075	-0.132256	-46.200310	-22.768800	-7.740264	-77.884520	-0.192143	 0.159855	-79.521180	-0.098837	 0.036323	-40.357130	 70.844760	 46.587760	-52.304420	 4.950163	-0.093038	-2.151909	 2.506645	-0.329303	-14.965880
-0.288970	-0.645074	 0.717297	 57.265250	 11.211550	-170.216500	 26.143900	 2.012458	 11.494860	 6.924393	-4.161756	-51.081260	 0.480082	-0.151008	-34.921260	-0.606548	 0.093916	-17.602760	-14.281200	-4.154080	-77.747060	-0.146702	 0.114986	-76.176130	-2.281048	 0.787814	-38.103270	-35.389510	-13.963590	-66.580550	-2.232105	 1.651479	-72.990280	 0.328339	-0.140211	-46.246830	-22.768080	-7.739568	-77.904910	-0.191431	 0.159336	-79.547040	-0.103062	 0.037912	-40.390850	 70.855930	 46.593950	-52.279820	 4.947672	-0.093046	-2.153423	 2.514600	-0.330636	-14.979100
-0.288814	-0.645058	 0.717371	 57.215550	 11.193610	-170.214800	 26.087470	 2.003891	 11.445240	 6.936851	-4.172224	-51.124880	 0.481784	-0.151708	-34.957740	-0.604833	 0.093770	-17.625560	-14.284560	-4.149504	-77.760560	-0.154208	 0.120894	-76.187470	-2.276992	 0.787885	-38.169360	-35.406750	-13.936750	-66.712590	-2.224992	 1.647092	-73.020030	 0.363795	-0.155560	-46.302780	-22.759530	-7.744706	-77.944070	-0.175550	 0.146227	-79.585380	-0.093118	 0.034309	-40.450660	 70.879130	 46.604610	-52.236240	 4.934066	-0.092979	-2.157646	 2.503400	-0.329491	-14.993600
